<svg width="1017" height="880" viewBox="0 0 1017 880" fill="none" xmlns="http://www.w3.org/2000/svg">
<path d="M145.58 1.98777L475.656 1.50221V252.864H293.823H291.228L292.523 255.112L293.823 254.364C292.523 255.112 292.523 255.113 292.524 255.114L292.528 255.121L292.544 255.148L292.606 255.257L292.854 255.688L293.828 257.379L297.578 263.894C300.838 269.557 305.562 277.766 311.421 287.947C323.139 308.308 339.395 336.557 357.545 368.108C393.673 430.911 437.308 506.798 467.602 559.597L322.671 809.983L1.73053 251.918L145.58 1.98777ZM363.607 878.5L507.97 629.093H508.444C508.703 629.093 509 629.048 509.298 628.906L653.77 878.5H363.607ZM723.067 252.864H545.634V1.5H871.31L1015.16 251.917L694.218 809.983L549.288 559.598C576.844 511.793 601.683 468.517 626.935 424.519C657.052 372.048 687.758 318.55 724.367 255.113L725.665 252.864H723.067Z" stroke="#E6EEF1" stroke-width="3"/>
</svg>
