<svg width="387" height="720" viewBox="0 0 387 720" fill="none" xmlns="http://www.w3.org/2000/svg">
<g opacity="0.5">
<path d="M-327.457 0.400125L-446 206.114L-181.683 665.169L-61.5385 457.854C-111.198 371.406 -205.311 208.116 -205.311 208.116H-55.1304V0L-327.457 0.400125Z" fill="#35454E"/>
<path d="M-29.5 513.485C-29.9009 513.085 -29.9009 512.685 -29.9009 512.285L-150.045 719.6L-149.644 720H91.0441L91.4449 719.6L-28.6992 512.285C-28.8166 512.52 -28.8997 512.72 -28.9681 512.886C-29.1343 513.286 -29.2175 513.485 -29.5 513.485Z" fill="#35454E"/>
<path d="M-0.26474 0H268.458L387 206.114L122.683 665.169L2.53845 457.854C25.2522 418.498 45.7035 382.909 66.498 346.723C91.1683 303.792 116.323 260.019 146.312 208.116H-0.26474V0Z" fill="#35454E"/>
</g>
</svg>
