<svg width="1040" height="900" viewBox="0 0 1040 900" fill="none" xmlns="http://www.w3.org/2000/svg">
<path d="M148.869 1.99888L486.5 1.50221V258.644H300.5H297.906L299.201 260.893L300.5 260.144C299.201 260.893 299.201 260.894 299.202 260.895L299.206 260.902L299.222 260.93L299.286 261.041L299.539 261.482L300.535 263.211L304.37 269.874C307.704 275.667 312.536 284.062 318.529 294.474C330.513 315.298 347.138 344.189 365.7 376.457C402.654 440.695 447.285 518.315 478.269 572.315L330.004 828.46L1.73054 257.643L148.869 1.99888ZM519.496 643.357H520C520.268 643.357 520.577 643.308 520.887 643.155L668.688 898.5H371.811L519.496 643.357ZM739.501 258.644H558V1.5H891.133L1038.27 257.643L709.996 828.46L561.732 572.316C589.918 523.418 615.325 479.153 641.154 434.15C671.955 380.486 703.359 325.772 740.8 260.894L742.098 258.644H739.501Z" stroke="#E6EEF1" stroke-width="3"/>
</svg>
