<svg width="372" height="186" viewBox="0 0 372 186" fill="none" xmlns="http://www.w3.org/2000/svg">
<path d="M109.202 1.10252L177.975 1.00147V52.7632H140.178H138.448L139.312 54.2625L140.178 53.7632C139.312 54.2625 139.312 54.2627 139.312 54.263L139.313 54.2645L139.316 54.2702L139.33 54.2932L139.382 54.3842L139.588 54.7417L140.382 56.1187L143.311 61.2026C145.791 65.5062 149.231 71.4769 153.072 78.1456C160.64 91.2851 169.763 107.133 176.165 118.277L146.285 169.836L79.154 53.2464L109.202 1.10252ZM156.131 185L185.648 134.067L215.165 185H156.131ZM231.015 52.7632H194.149V1H261.991L292.039 53.2459L224.908 169.836L195.028 118.278C200.781 108.308 205.98 99.2627 211.263 90.0683C217.636 78.9778 224.134 67.6708 231.881 54.2635L232.747 52.7632H231.015Z" stroke="#E6EEF1" stroke-width="2"/>
</svg>
