<svg xmlns="http://www.w3.org/2000/svg">

    <symbol viewBox="0 0 266 40" id="logo">
        <path d="M77.335 34.4054C74.1395 35.2493 71.5603 35.482 69.4056 35.482C62.2382 35.482 56 32.131 56 24.5438C56 16.4134 62.1969 7.59439 74.9523 7.59439C78.1066 7.59439 80.6494 8.05511 81.9596 8.32668L82.5395 8.44308L81.1128 15.5647C79.4168 14.8373 77.4515 14.5293 75.8719 14.5293C70.2888 14.5293 66.8968 18.7291 66.8968 23.0768C66.8968 26.6242 69.6386 28.2804 73.1762 28.2804C74.0618 28.2804 75.9131 28.164 78.8005 27.1625L77.335 34.4054Z" fill="#DF2C31" />
        <path d="M115.442 8.05465L113.824 16.0298H104.737L100.884 35.0233H90.5598L94.4129 16.0298H85.3237L86.9397 8.05465H115.442Z" fill="#DF2C31" />
        <path d="M132.099 14.4494L127.591 22.8853H133.324L132.252 14.4494H132.099ZM140.606 8.05518L144.728 35.0214H133.868L133.212 29.2382H125.087L122.122 35.0214H111.8L126.707 8.05518H140.606Z" fill="#DF2C31" />
        <path d="M160.999 21.0002H163.501C167.429 21.0002 168.739 18.8809 168.739 17.0672C168.739 16.2209 168.315 14.4144 165.194 14.4144H162.31L160.999 21.0002ZM170.125 8.05419C175.747 8.05419 179.292 11.4853 179.292 16.0682C179.292 21.1166 175.327 27.3556 165.891 27.3556H159.958L158.415 35.0228H148.094L153.563 8.05419H170.125Z" fill="#DF2C31" />
        <path d="M213.276 8.05465L211.658 16.0298H202.571L198.718 35.0233H188.396L192.244 16.0298H183.158L184.774 8.05465H213.276Z" fill="#DF2C31" />
        <path d="M218.34 18.0286L216.75 25.9311H226.626L228.174 18.0286H218.34Z" fill="#05171D" />
        <path d="M230.5 39.9972H242.413L266 0.000392914H236.047L234.436 10.2471H248.433L230.5 39.9972Z" fill="#DF2C31" />
        <path d="M23.002 28.5186C22.99 28.4992 22.9828 28.4822 22.9708 28.4628L16.3369 39.9782L16.3514 40H29.6527L29.6648 39.9855L23.0309 28.4701C23.0213 28.487 23.0141 28.504 23.002 28.5186Z" fill="#05171D" />
        <path d="M13.2892 11.5497H21.593V0.000413895H6.54468L13.2892 11.5497ZM24.6272 0.000413895V11.5497H32.7047L39.4565 0.000413895H24.6272Z" fill="#05171D" />
        <path d="M39.4599 -3.43323e-05H39.4551L32.7057 11.5493H32.7178C29.6763 16.8645 27.518 20.6326 24.7773 25.4143L31.4112 36.9297L45.9999 11.4499L39.4599 -3.43323e-05Z" fill="#DF2C31" />
        <path d="M13.287 11.5498L6.55204 0.0174484L0 11.4431L14.5887 36.9254L21.225 25.4124C18.4867 20.6283 16.326 16.8601 13.287 11.5498Z" fill="#DF2C31" />
    </symbol>

    <symbol viewBox="0 0 266 40" id="logo-white">
        <path d="M77.335 34.4054C74.1395 35.2492 71.5603 35.482 69.4056 35.482C62.2382 35.482 56 32.1309 56 24.5437C56 16.4134 62.1969 7.59435 74.9523 7.59435C78.1066 7.59435 80.6494 8.05507 81.9596 8.32664L82.5395 8.44304L81.1128 15.5647C79.4168 14.8372 77.4515 14.5293 75.8719 14.5293C70.2888 14.5293 66.8968 18.729 66.8968 23.0767C66.8968 26.6242 69.6386 28.2803 73.1762 28.2803C74.0618 28.2803 75.9131 28.1639 78.8005 27.1625L77.335 34.4054Z" fill="white" />
        <path d="M115.442 8.05462L113.824 16.0298H104.737L100.884 35.0233H90.5599L94.4129 16.0298H85.3238L86.9397 8.05462H115.442Z" fill="white" />
        <path d="M132.099 14.4493L127.591 22.8852H133.324L132.252 14.4493H132.099ZM140.606 8.05515L144.728 35.0214H133.868L133.212 29.2382H125.087L122.122 35.0214H111.8L126.707 8.05515H140.606Z" fill="white" />
        <path d="M160.999 21.0002H163.501C167.429 21.0002 168.739 18.8809 168.739 17.0672C168.739 16.2209 168.315 14.4144 165.195 14.4144H162.31L160.999 21.0002ZM170.125 8.05419C175.747 8.05419 179.292 11.4853 179.292 16.0682C179.292 21.1166 175.327 27.3556 165.891 27.3556H159.958L158.415 35.0228H148.094L153.563 8.05419H170.125Z" fill="white" />
        <path d="M213.276 8.05462L211.658 16.0298H202.571L198.718 35.0233H188.396L192.244 16.0298H183.158L184.774 8.05462H213.276Z" fill="white" />
        <path d="M218.34 18.0286L216.75 25.931H226.626L228.174 18.0286H218.34Z" fill="white" />
        <path d="M230.5 39.9972H242.413L266 0.000362396H236.047L234.435 10.2471H248.433L230.5 39.9972Z" fill="white" />
        <path d="M23.0022 28.5186C22.9901 28.4992 22.9829 28.4822 22.9709 28.4628L16.337 39.9782L16.3515 40H29.6529L29.6649 39.9855L23.031 28.4701C23.0214 28.487 23.0142 28.504 23.0022 28.5186Z" fill="white" />
        <path d="M13.2893 11.5497H21.5931V0.000413895H6.5448L13.2893 11.5497ZM24.6273 0.000413895V11.5497H32.7048L39.4566 0.000413895H24.6273Z" fill="white" />
        <path d="M39.46 -3.43323e-05H39.4552L32.7058 11.5493H32.7178C29.6764 16.8645 27.5181 20.6326 24.7774 25.4143L31.4113 36.9297L46 11.4499L39.46 -3.43323e-05Z" fill="#DF2C31" />
        <path d="M13.287 11.5498L6.55204 0.0174484L0 11.4431L14.5887 36.9254L21.225 25.4124C18.4867 20.6283 16.326 16.8601 13.287 11.5498Z" fill="#DF2C31" />
    </symbol>

    <symbol viewBox="0 0 40 40" id="burger-link">
        <path d="M0 14L40 14" stroke-width="3" stroke-linejoin="round" />
        <path d="M0 26L24 26" stroke-width="3" stroke-linejoin="round" />
    </symbol>

    <symbol viewBox="0 0 40 40" id="burger-close">
        <path d="M6 6.00003L34.2843 34.2843" stroke-width="3" stroke-linejoin="round" />
        <path d="M34 6L5.71573 34.2843" stroke-width="3" stroke-linejoin="round" />
    </symbol>

    <symbol viewBox="0 0 32 32" id="icon-btn">
        <path d="M12 4L19.7574 11.7574C22.1005 14.1005 22.1005 17.8995 19.7574 20.2426L12 28" stroke-width="3" />
    </symbol>

    <symbol viewBox="0 0 40 40" id="icon-vk">
        <path d="M21.117 26.7397C13.6841 26.7397 9.17501 21.5757 9 13H12.7679C12.8811 19.2978 15.7534 21.9777 17.9462 22.524V13H21.5494V18.4423C23.6701 18.2052 25.8835 15.7314 26.6247 13H30.1764C29.6102 16.3602 27.1909 18.834 25.4923 19.8544C27.2012 20.679 29.9396 22.8435 31 26.75H27.0983C26.2747 24.1422 24.2569 22.122 21.5494 21.8437V26.75H21.117V26.7397Z" />
    </symbol>

    <symbol viewBox="0 0 40 40" id="icon-tg">
        <path d="M10.4005 20.3147L14.9172 21.817C14.9934 21.8306 15.0715 21.8257 15.1455 21.8029L15.1468 21.8021C16.1807 21.1355 25.4828 15.1386 26.0196 14.937C26.1042 14.9109 26.1671 14.9403 26.1504 15C25.9353 15.7702 17.8496 23.1073 17.8496 23.1073C17.8496 23.1073 17.817 23.1453 17.7976 23.192L17.789 23.1868L17.3675 27.7601C17.3675 27.7601 17.1911 29.1614 18.5634 27.7601C19.53 26.7731 20.4675 25.9452 20.9373 25.5419C22.4901 26.6364 24.1616 27.8474 24.8827 28.4806C25.0035 28.6003 25.1466 28.6939 25.3036 28.7559C25.4606 28.8179 25.6282 28.847 25.7965 28.8414C26.4811 28.8151 26.6722 28.0474 26.6722 28.0474C26.6722 28.0474 29.866 14.9276 29.9727 13.1696C29.9834 12.9976 29.9974 12.8878 29.9988 12.7694C30.0043 12.6325 29.9911 12.4956 29.9596 12.3624C29.9436 12.287 29.9082 12.2173 29.8571 12.1605C29.806 12.1037 29.7411 12.0617 29.6689 12.0389C29.3771 11.9256 28.8823 12.0958 28.8823 12.0958C28.8823 12.0958 11.3592 18.5256 10.3584 19.2377C10.1424 19.3906 10.0703 19.4796 10.0345 19.5841C9.86066 20.0911 10.4005 20.3147 10.4005 20.3147Z" />
    </symbol>

    <symbol viewBox="0 0 40 40" id="icon-yt">
        <path d="M30.5418 14.4122C30.4162 13.9462 30.1704 13.5213 29.8291 13.18C29.4878 12.8387 29.0629 12.5929 28.5968 12.4672C26.88 12 20 12 20 12C20 12 13.1182 12 11.405 12.46C10.9379 12.5859 10.5122 12.8327 10.1708 13.1754C9.82937 13.5181 9.58421 13.9447 9.45999 14.4122C9 16.1273 9 19.7076 9 19.7076C9 19.7076 9 23.2879 9.45999 25.003C9.58532 25.4692 9.83097 25.8943 10.1723 26.2356C10.5137 26.577 10.9388 26.8226 11.405 26.948C13.12 27.408 20 27.408 20 27.408C20 27.408 26.8818 27.408 28.5968 26.948C29.0629 26.8223 29.4878 26.5766 29.8291 26.2352C30.1704 25.8939 30.4162 25.469 30.5418 25.003C31 23.2879 31 19.7076 31 19.7076C31 19.7076 30.9946 16.1273 30.5418 14.4122ZM17.7996 23.0072V16.408L23.5151 19.7076L17.7996 23.0072Z" />
    </symbol>

    <symbol viewBox="0 0 40 40" id="icon-zen">
        <path fill-rule="evenodd" clip-rule="evenodd" d="M19.5205 4C19.4399 10.4862 18.9972 14.1317 16.5645 16.5645C14.1317 18.9972 10.4862 19.4399 4 19.5205V20.4795C10.4862 20.5601 14.1318 21.0028 16.5645 23.4355C18.9972 25.8683 19.4399 29.5138 19.5205 36H20.4795C20.5601 29.5138 21.0028 25.8683 23.4355 23.4355C25.8683 21.0028 29.5138 20.5601 36 20.4795V19.5205C29.5138 19.4399 25.8683 18.9972 23.4355 16.5645C21.0028 14.1317 20.5601 10.4862 20.4795 4H19.5205Z" />
    </symbol>

    <symbol viewBox="0 0 24 24" id="top-link">
        <path d="M22 11L16.2426 5.24264C13.8995 2.8995 10.1005 2.8995 7.75736 5.24264L2 11" stroke-width="2" />
        <path d="M22 20L16.2426 14.2426C13.8995 11.8995 10.1005 11.8995 7.75736 14.2426L2 20" stroke-width="2" />
    </symbol>

    <symbol viewBox="0 0 108 108" id="main-present-play">
        <path d="M45 38L69 54L45 70" />
    </symbol>

    <symbol viewBox="0 0 32 32" id="arrow-prev">
        <path d="M30 16L4 16" stroke-width="3" />
        <path d="M14 3L6.65686 10.3431C3.53266 13.4673 3.53266 18.5327 6.65685 21.6569L14 29" stroke-width="3" />
    </symbol>

    <symbol viewBox="0 0 32 32" id="arrow-next">
        <path d="M2 16L28 16" stroke-width="3" />
        <path d="M18 3L25.3431 10.3431C28.4673 13.4673 28.4673 18.5327 25.3431 21.6569L18 29" stroke-width="3" />
    </symbol>

    <symbol viewBox="0 0 40 40" id="icon-plus">
        <path d="M19.9999 1.38876e-07L19.9999 14C19.9999 17.3137 17.3136 20 13.9999 20H-0.000121723" stroke-width="3" />
        <path d="M20 40L20 26C20 22.6863 22.6863 20 26 20H40" stroke-width="3" />
    </symbol>

    <symbol viewBox="0 0 96 32" id="pager-prev">
        <path d="M96 16L4 16" stroke-width="3" />
        <path d="M13 3L5.65686 10.3431C2.53266 13.4673 2.53266 18.5327 5.65685 21.6569L13 29" stroke-width="3" />
    </symbol>

    <symbol viewBox="0 0 96 32" id="pager-next">
        <path d="M3.8147e-06 16L92 16" stroke-width="3" />
        <path d="M83 3L90.3431 10.3431C93.4673 13.4673 93.4673 18.5327 90.3431 21.6569L83 29" stroke-width="3" />
    </symbol>

    <symbol viewBox="0 0 40 40" id="icon-jpg">
        <path d="M32.8773 39.1667H0.833333V11.8821L7.05532 0.833333H39.1667V27.9962C36.8833 32.0531 34.8474 35.669 32.8773 39.1667Z" fill="white" stroke="#DF2C31" stroke-width="1.66667" />
        <path d="M8.97995 28.3167V26.9667C9.39106 26.9667 9.72439 26.9389 9.97995 26.8833C10.2355 26.8278 10.4299 26.7278 10.5633 26.5833C10.7077 26.4389 10.8077 26.2333 10.8633 25.9667C10.9188 25.6889 10.9466 25.3389 10.9466 24.9167V14.5H12.8133V24.95C12.8133 25.7278 12.7299 26.3667 12.5633 26.8667C12.3966 27.3556 12.1022 27.7222 11.6799 27.9667C11.2577 28.2 10.6577 28.3167 9.87995 28.3167H8.97995ZM15.093 28V14.5H18.443C19.2541 14.5 19.8985 14.65 20.3763 14.95C20.8652 15.2389 21.2207 15.6611 21.443 16.2167C21.6652 16.7722 21.7763 17.4444 21.7763 18.2333C21.7763 18.9444 21.6485 19.5611 21.393 20.0833C21.1485 20.6056 20.7819 21.0111 20.293 21.3C19.8041 21.5778 19.193 21.7167 18.4596 21.7167H16.9763V28H15.093ZM16.9763 20.3667H17.843C18.3874 20.3667 18.8152 20.3056 19.1263 20.1833C19.4374 20.0611 19.6596 19.85 19.793 19.55C19.9263 19.2389 19.993 18.8056 19.993 18.25C19.993 17.6056 19.943 17.1111 19.843 16.7667C19.7541 16.4222 19.5596 16.1833 19.2596 16.05C18.9596 15.9167 18.493 15.85 17.8596 15.85H16.9763V20.3667ZM26.4841 28.1667C25.6397 28.1667 24.9619 27.9889 24.4508 27.6333C23.9508 27.2667 23.5841 26.7389 23.3508 26.05C23.1286 25.3611 23.0174 24.5333 23.0174 23.5667V19.05C23.0174 18.0611 23.1174 17.2222 23.3174 16.5333C23.5286 15.8333 23.8952 15.3 24.4174 14.9333C24.9508 14.5667 25.6897 14.3833 26.6341 14.3833C27.4786 14.3833 28.1563 14.5278 28.6674 14.8167C29.1897 15.0944 29.5674 15.5278 29.8008 16.1167C30.0341 16.6944 30.1508 17.4278 30.1508 18.3167V18.8167H28.3841V18.4C28.3841 17.8111 28.3452 17.3333 28.2674 16.9667C28.1897 16.5889 28.0286 16.3111 27.7841 16.1333C27.5508 15.9444 27.1786 15.85 26.6674 15.85C26.1119 15.85 25.7063 15.9778 25.4508 16.2333C25.2063 16.4889 25.0508 16.8389 24.9841 17.2833C24.9286 17.7167 24.9008 18.2111 24.9008 18.7667V23.7667C24.9008 24.4111 24.9452 24.95 25.0341 25.3833C25.1341 25.8167 25.3174 26.1389 25.5841 26.35C25.8508 26.5611 26.2286 26.6667 26.7174 26.6667C27.2063 26.6667 27.5841 26.55 27.8508 26.3167C28.1174 26.0833 28.3008 25.7389 28.4008 25.2833C28.5008 24.8278 28.5508 24.2611 28.5508 23.5833V22.65H26.8341V21.3167H30.2508V28H29.0674L28.8841 26.45C28.7063 26.95 28.4286 27.3611 28.0508 27.6833C27.673 28.0056 27.1508 28.1667 26.4841 28.1667Z" fill="#DF2C31" />
    </symbol>

    <symbol viewBox="0 0 40 40" id="icon-png">
        <path d="M32.8773 39.1667H0.833333V11.8821L7.05532 0.833333H39.1667V27.9962C36.8833 32.0531 34.8474 35.669 32.8773 39.1667Z" fill="white" stroke="#DF2C31" stroke-width="1.66667" />
        <path d="M28.3807 27.6665C27.5363 27.6665 26.8585 27.4887 26.3474 27.1332C25.8474 26.7665 25.4807 26.2387 25.2474 25.5498C25.0252 24.861 24.9141 24.0332 24.9141 23.0665V18.5498C24.9141 17.561 25.0141 16.7221 25.2141 16.0332C25.4252 15.3332 25.7918 14.7998 26.3141 14.4332C26.8474 14.0665 27.5863 13.8832 28.5307 13.8832C29.3752 13.8832 30.053 14.0276 30.5641 14.3165C31.0863 14.5943 31.4641 15.0276 31.6974 15.6165C31.9307 16.1943 32.0474 16.9276 32.0474 17.8165V18.3165H30.2807V17.8998C30.2807 17.311 30.2418 16.8332 30.1641 16.4665C30.0863 16.0887 29.9252 15.811 29.6807 15.6332C29.4474 15.4443 29.0752 15.3498 28.5641 15.3498C28.0085 15.3498 27.603 15.4776 27.3474 15.7332C27.103 15.9887 26.9474 16.3387 26.8807 16.7832C26.8252 17.2165 26.7974 17.711 26.7974 18.2665V23.2665C26.7974 23.911 26.8418 24.4498 26.9307 24.8832C27.0307 25.3165 27.2141 25.6387 27.4807 25.8498C27.7474 26.061 28.1252 26.1665 28.6141 26.1665C29.103 26.1665 29.4807 26.0498 29.7474 25.8165C30.0141 25.5832 30.1974 25.2387 30.2974 24.7832C30.3974 24.3276 30.4474 23.761 30.4474 23.0832V22.1498H28.7307V20.8165H32.1474V27.4998H30.9641L30.7807 25.9498C30.603 26.4498 30.3252 26.861 29.9474 27.1832C29.5696 27.5054 29.0474 27.6665 28.3807 27.6665Z" fill="#DF2C31" />
        <path d="M16.1921 27.4998V13.9998H17.4754L21.3087 22.9665V13.9998H22.8754V27.4998H21.6754L17.7921 18.2832V27.4998H16.1921Z" fill="#DF2C31" />
        <path d="M8.01758 27.4998V13.9998H11.3676C12.1787 13.9998 12.8231 14.1498 13.3009 14.4498C13.7898 14.7387 14.1454 15.161 14.3676 15.7165C14.5898 16.2721 14.7009 16.9443 14.7009 17.7332C14.7009 18.4443 14.5731 19.061 14.3176 19.5832C14.0731 20.1054 13.7065 20.511 13.2176 20.7998C12.7287 21.0776 12.1176 21.2165 11.3842 21.2165H9.90091V27.4998H8.01758ZM9.90091 19.8665H10.7676C11.312 19.8665 11.7398 19.8054 12.0509 19.6832C12.362 19.561 12.5842 19.3498 12.7176 19.0498C12.8509 18.7387 12.9176 18.3054 12.9176 17.7498C12.9176 17.1054 12.8676 16.611 12.7676 16.2665C12.6787 15.9221 12.4842 15.6832 12.1842 15.5498C11.8842 15.4165 11.4176 15.3498 10.7842 15.3498H9.90091V19.8665Z" fill="#DF2C31" />
    </symbol>

    <symbol viewBox="0 0 40 40" id="icon-pdf">
        <path d="M32.8773 39.1667H0.833333V11.8821L7.05532 0.833333H39.1667V27.9962C36.8833 32.0531 34.8474 35.669 32.8773 39.1667Z" fill="white" stroke="#DF2C31" stroke-width="1.66667" />
        <path fill-rule="evenodd" clip-rule="evenodd" d="M9.16699 14.0001V27.5001H11.0503V21.2168H12.5337C13.267 21.2168 13.8781 21.0779 14.367 20.8001C14.8559 20.5112 15.2225 20.1057 15.467 19.5835C15.7225 19.0612 15.8503 18.4446 15.8503 17.7335C15.8503 16.9446 15.7392 16.2723 15.517 15.7168C15.2948 15.1612 14.9392 14.739 14.4503 14.4501C13.9725 14.1501 13.3281 14.0001 12.517 14.0001H9.16699ZM11.917 19.8668H11.0503V15.3501H11.9337C12.567 15.3501 13.0337 15.4168 13.3337 15.5501C13.6337 15.6835 13.8281 15.9223 13.917 16.2668C14.017 16.6112 14.067 17.1057 14.067 17.7501C14.067 18.3057 14.0003 18.739 13.867 19.0501C13.7337 19.3501 13.5114 19.5612 13.2003 19.6835C12.8892 19.8057 12.4614 19.8668 11.917 19.8668Z" fill="#DF2C31" />
        <path fill-rule="evenodd" clip-rule="evenodd" d="M17.1748 27.5001V14.0001H20.1081C21.1081 14.0001 21.897 14.1557 22.4748 14.4668C23.0637 14.7668 23.4804 15.2223 23.7248 15.8335C23.9804 16.4446 24.1081 17.2057 24.1081 18.1168V23.0835C24.1081 24.039 23.9804 24.8446 23.7248 25.5001C23.4804 26.1557 23.0748 26.6557 22.5081 27.0001C21.9526 27.3335 21.2026 27.5001 20.2581 27.5001H17.1748ZM19.0581 26.1501H20.1248C20.8137 26.1501 21.3026 26.0168 21.5915 25.7501C21.8804 25.4835 22.0526 25.0946 22.1081 24.5835C22.1748 24.0723 22.2081 23.4557 22.2081 22.7335V18.3501C22.2081 17.6501 22.1637 17.0835 22.0748 16.6501C21.9859 16.2168 21.7915 15.9001 21.4915 15.7001C21.1915 15.5001 20.7192 15.4001 20.0748 15.4001H19.0581V26.1501Z" fill="#DF2C31" />
        <path d="M25.9639 27.5001V14.0001H31.1805V15.3501H27.8472V19.8501H30.4305V21.1835H27.8472V27.5001H25.9639Z" fill="#DF2C31" />
    </symbol>

    <symbol viewBox="0 0 108 108" id="vacancy-arrow">
        <path d="M72 48L59.6568 60.3432C56.5327 63.4673 51.4673 63.4673 48.3431 60.3431L36 48" stroke-width="3" />
    </symbol>

    <symbol viewBox="0 0 40 40" id="window-close">
        <path d="M34.1422 5.85786L24.2427 15.7574C21.8995 18.1005 18.1005 18.1005 15.7574 15.7574L5.85788 5.85786" stroke-width="3" />
        <path d="M5.85785 34.1421L15.7573 24.2426C18.1005 21.8995 21.8995 21.8995 24.2426 24.2426L34.1421 34.1421" stroke-width="3" />
    </symbol>

    <symbol viewBox="0 0 24 24" id="icon-arrow">
        <path d="M9 3L15.1716 9.17158C16.7337 10.7337 16.7337 13.2663 15.1716 14.8284L9 21" stroke-width="3" />
    </symbol>

</svg>