<svg width="80" height="81" viewBox="0 0 80 81" fill="none" xmlns="http://www.w3.org/2000/svg">
<g clip-path="url(#clip0_11017_8506)">
<path d="M40.865 43.0942L80.0001 3.95909L76.541 0.5L65.0244 12.0166C58.1408 5.9439 49.3201 2.46869 40.0993 2.24148C30.1817 1.99709 20.5414 5.52833 13.1283 12.121C5.71511 18.7136 1.08236 27.8756 0.167025 37.7539C-0.748308 47.6322 2.1221 57.4894 8.19768 65.3319C14.2733 73.1745 23.1005 78.4169 32.8942 79.999C42.6878 81.5811 52.7168 79.3847 60.9527 73.8541C69.1886 68.3235 75.0167 59.8714 77.2583 50.2074C79.4998 40.5433 77.9875 30.3887 73.0273 21.7972L68.7908 24.2431C73.131 31.7607 74.4543 40.646 72.4929 49.102C70.5315 57.5581 65.4319 64.9536 58.2255 69.7929C51.0191 74.6322 42.2437 76.5541 33.6743 75.1697C25.1049 73.7854 17.381 69.1983 12.0649 62.336C6.74874 55.4738 4.23713 46.8487 5.03805 38.2052C5.83897 29.5618 9.89262 21.545 16.3791 15.7765C22.8657 10.0079 31.3009 6.91805 39.9788 7.13188C47.9444 7.32817 55.5687 10.2946 61.5576 15.4834L51.1336 25.9074C48.3346 23.7347 44.9795 22.3491 41.4181 21.9308C36.7208 21.379 31.9826 22.5472 28.0801 25.2193C24.1777 27.8914 21.3751 31.8865 20.1909 36.4655C19.0067 41.0444 19.5211 45.8973 21.6388 50.1263C23.7566 54.3553 27.3343 57.6742 31.7102 59.4689C36.0861 61.2635 40.9639 61.4125 45.4412 59.8884C49.9185 58.3642 53.6922 55.2699 56.0641 51.1781C58.4361 47.0862 59.2457 42.2738 58.3433 37.6311L53.5413 38.5645C54.2181 42.0465 53.6109 45.6559 51.8319 48.7247C50.053 51.7936 47.2227 54.1143 43.8647 55.2575C40.5068 56.4006 36.8484 56.2888 33.5665 54.9428C30.2846 53.5968 27.6012 51.1077 26.0129 47.9359C24.4246 44.7642 24.0389 41.1245 24.927 37.6903C25.8151 34.2561 27.9171 31.2597 30.8439 29.2557C33.7707 27.2516 37.3244 26.3754 40.8474 26.7893C43.3111 27.0787 45.6433 27.9853 47.6379 29.4031L37.4059 39.6351L40.865 43.0942Z" fill="#DF2C31"/>
</g>
<defs>
<clipPath id="clip0_11017_8506">
<rect width="80" height="80" fill="white" transform="translate(0 0.5)"/>
</clipPath>
</defs>
</svg>
