<svg width="80" height="80" viewBox="0 0 80 80" fill="none" xmlns="http://www.w3.org/2000/svg">
<path fill-rule="evenodd" clip-rule="evenodd" d="M73.0003 10.5154L38.8538 44.5197L20.8867 26.6275L24.4619 23.0672L38.8538 37.3991L69.4251 6.95514L73.0003 10.5154Z" fill="#DF2C31"/>
<path d="M38.8012 1L70.0598 12.4137L64.89 15.8889L38.9025 6.3998C34.5545 8.16372 30.1937 9.89736 25.8157 11.5863C21.2798 13.3362 16.7311 15.1229 12.0744 16.5363C12.1588 25.214 12.5299 32.922 13.057 38.7184C13.7141 45.9444 14.7661 50.4467 16.3612 53.9214C17.943 57.3672 20.1414 59.9887 23.4672 63.3644L23.4769 63.3743L23.4865 63.3843C27.6486 67.7027 38.9214 73.3968 38.9214 73.3968C38.9214 73.3968 50.154 66.9901 54.2432 62.8571C59.976 57.0629 62.6562 50.455 63.6368 38.7364L68.6754 39.1545C67.6336 51.6039 64.675 59.4875 57.8448 66.3909C52.4114 71.8825 38.7865 79 38.7865 79C38.7865 79 24.9378 72.1511 19.8487 66.8811C16.4057 63.3858 13.7136 60.2643 11.7628 56.0148C9.82351 51.7903 8.70045 46.639 8.02152 39.1725C7.40237 32.3634 7 23.0871 7 12.7633C12.7039 10.8696 18.3722 9.0583 23.9893 6.89132C28.9468 4.97876 33.8827 3.00993 38.8012 1Z" fill="#DF2C31"/>
</svg>
