<svg width="480" height="418" viewBox="0 0 480 418" fill="none" xmlns="http://www.w3.org/2000/svg">
<path d="M428.911 0.224426H428.859L355.495 125.746H355.626C322.567 183.512 299.106 224.465 269.316 276.434L341.424 401.586L499.999 124.665L428.911 0.224426Z" fill="#CB181D"/>
<path d="M144.425 125.756L71.2187 0.419067L0 124.596L158.575 401.544L230.709 276.418C200.945 224.423 177.458 183.47 144.425 125.756Z" fill="#CB181D"/>
<path d="M250.005 310.171C249.874 309.961 249.795 309.776 249.665 309.565L177.557 434.717L177.714 434.955H322.296L322.426 434.796L250.318 309.644C250.214 309.829 250.135 310.013 250.005 310.171Z" fill="#05171D" fill-opacity="0.35"/>
<path d="M144.428 125.741H234.687V0.220039H71.1172L144.428 125.741ZM267.668 0.220039V125.741H355.469L428.858 0.220039H267.668Z" fill="#05171D" fill-opacity="0.35"/>
</svg>
