<svg width="80" height="81" viewBox="0 0 80 81" fill="none" xmlns="http://www.w3.org/2000/svg">
<g clip-path="url(#clip0_11017_8508)">
<path fill-rule="evenodd" clip-rule="evenodd" d="M33.4361 64.611C32.0845 64.7105 30.7129 64.7605 29.3354 64.7625C19.305 64.7625 10.5996 62.137 5.33311 58.0452V64.4344C5.33311 69.5017 15.1894 75.1448 29.3321 75.1448C29.3326 76.6638 29.4155 79.6079 29.3354 80.5C12.8861 80.5 0 73.4414 0 64.4344L0.00333319 16.5656C0.00333319 7.55858 12.8895 0.5 29.3354 0.5C45.7814 0.5 58.6676 7.56218 58.6676 16.5691V32.4509C70.6504 33.787 80 44.0187 80 56.4016C80 69.6893 69.2338 80.5 56.001 80.5C45.6373 80.5 36.7868 73.8693 33.4361 64.611ZM29.3354 32.6313H29.3454C36.8718 32.6313 43.9882 31.1422 49.3846 28.4311C50.8695 27.6853 52.1895 26.865 53.3344 25.9821V32.4509C46.1981 33.2466 39.9958 37.1974 36.146 42.8785C33.9461 43.1863 31.6628 43.3417 29.3354 43.3417C15.1927 43.3417 5.33644 37.6987 5.33644 32.6313L5.33311 25.9139C10.5996 30.0057 19.305 32.6313 29.3354 32.6313ZM33.3061 48.56C31.9987 48.6523 30.6737 48.6982 29.3354 48.6969C19.3067 48.6969 10.6021 46.0721 5.33561 41.9814L5.33644 48.6969C5.33644 53.7643 15.1927 59.4073 29.3354 59.4073C30.2896 59.4073 31.2387 59.3806 32.1778 59.328C32.062 58.3685 32.002 57.392 32.002 56.4016C32.002 53.6576 32.4611 51.0193 33.3061 48.56ZM46.9989 23.6412C50.9812 21.6417 53.2844 19.0989 53.3344 16.6504L53.3353 16.569C53.3353 11.5016 43.4782 5.85866 29.3354 5.85521C15.1927 5.85521 5.33644 11.5016 5.33644 16.5656C5.33644 21.6331 15.1927 27.2761 29.3354 27.2761H29.3454C36.0585 27.2761 42.3249 25.9841 46.9989 23.6412ZM37.3351 56.4016C37.3351 46.0693 45.7114 37.6583 56.001 37.6583C66.2906 37.6583 74.6669 46.0693 74.6669 56.4016C74.6669 66.7338 66.2906 75.1448 56.001 75.1448C45.7114 75.1448 37.3351 66.7338 37.3351 56.4016Z" fill="#DF2C31"/>
</g>
<defs>
<clipPath id="clip0_11017_8508">
<rect width="80" height="80" fill="white" transform="translate(0 0.5)"/>
</clipPath>
</defs>
</svg>
