<svg width="222" height="411" viewBox="0 0 222 411" fill="none" xmlns="http://www.w3.org/2000/svg">
<g opacity="0.5">
<path d="M-186.261 0.228404L-254 117.657L-102.962 379.701L-34.3077 261.359C-62.6844 212.011 -116.463 118.799 -116.463 118.799H-30.6459V0L-186.261 0.228404Z" fill="#35454E"/>
<path d="M-16 293.115C-16.2291 292.886 -16.2291 292.657 -16.2291 292.429L-84.8829 410.772L-84.6539 411H52.8824L53.1114 410.772L-15.5424 292.429C-15.6095 292.563 -15.657 292.678 -15.6961 292.772C-15.791 293.001 -15.8385 293.115 -16 293.115Z" fill="#35454E"/>
<path d="M0.705872 0H154.262L222 117.657L70.9615 379.701L2.30768 261.359C15.287 238.893 26.9734 218.577 38.856 197.921C52.9533 173.414 67.3271 148.428 84.4638 118.799H0.705872V0Z" fill="#35454E"/>
</g>
</svg>
