<svg width="534" height="863" viewBox="0 0 534 863" fill="none" xmlns="http://www.w3.org/2000/svg">
<g opacity="0.5">
<path d="M142.024 0.479594L0 247.051L316.673 797.279L460.615 548.789C401.12 445.172 288.365 249.45 288.365 249.45H468.293V0L142.024 0.479594Z" fill="#35454E"/>
<path d="M499 615.469C498.52 614.989 498.52 614.51 498.52 614.03L354.577 862.52L355.058 863H643.421L643.902 862.52L499.959 614.03C499.819 614.312 499.719 614.552 499.637 614.751C499.438 615.23 499.339 615.469 499 615.469Z" fill="#35454E"/>
<path d="M534.026 0H855.978L998 247.051L681.327 797.279L537.385 548.789C564.598 501.616 589.1 458.96 614.013 415.586C643.57 364.128 673.707 311.662 709.636 249.45H534.026V0Z" fill="#35454E"/>
</g>
</svg>
