<svg width="240" height="120" viewBox="0 0 240 120" fill="none" xmlns="http://www.w3.org/2000/svg">
<rect width="240" height="120" fill="white"/>
<mask id="mask0_2897_25" style="mask-type:luminance" maskUnits="userSpaceOnUse" x="35" y="38" width="170" height="45">
<path d="M205 38H35V82.0414H205V38Z" fill="white"/>
</mask>
<g mask="url(#mask0_2897_25)">
<path d="M54.3782 82.0409C47.0936 74.9941 43.4509 71.4707 43.4509 71.4707L36.3262 78.5175C35.5933 79.4847 35.7828 80.8623 36.7492 81.5952C37.131 81.8848 37.597 82.0409 38.0762 82.0409C38.0882 82.0409 38.1001 82.0409 38.1121 82.0409C43.5341 82.0409 48.9562 82.0409 54.3782 82.0409Z" fill="#FF4F12"/>
<path fill-rule="evenodd" clip-rule="evenodd" d="M61.4248 53.8553L45.5699 38L36.7179 47.2209C35.6155 48.3691 35 49.8992 35 51.4904V78.5179C35 80.4635 36.5775 82.0413 38.5233 82.0413C37.3178 82.0413 36.3405 81.0642 36.3405 79.859C36.3405 79.2785 36.5717 78.7219 36.9829 78.3127" fill="#7800FF"/>
<path fill-rule="evenodd" clip-rule="evenodd" d="M174.411 65.459H170.599L166.044 70.064V65.459H162.82V78.1498H166.044V72.905L170.675 78.1498H174.565L168.577 71.3434L174.411 65.459Z" fill="#111111"/>
<path fill-rule="evenodd" clip-rule="evenodd" d="M72.1018 68.8871H67.4446V63.2583H72.1018C74.4557 63.2583 75.5305 64.384 75.5305 66.0727C75.5305 67.7614 74.4557 68.8871 72.1018 68.8871ZM72.204 60.2385H64.0673V78.1503H67.4446V71.9069H72.204C76.247 71.9069 78.908 69.8341 78.908 66.0727C78.908 62.3113 76.247 60.2385 72.204 60.2385Z" fill="#111111"/>
<path fill-rule="evenodd" clip-rule="evenodd" d="M86.532 75.4895C84.6386 75.4895 82.873 74.1333 82.873 71.8049C82.873 69.4765 84.6386 68.1203 86.532 68.1203C88.4255 68.1203 90.1909 69.4765 90.1909 71.8049C90.1909 74.1333 88.4255 75.4895 86.532 75.4895ZM86.532 65.1006C83.0521 65.1006 79.5977 67.3522 79.5977 71.8049C79.5977 76.2577 83.0521 78.5092 86.532 78.5092C90.012 78.5092 93.4663 76.2577 93.4663 71.8049C93.4663 67.3522 90.012 65.1006 86.532 65.1006Z" fill="#111111"/>
<path fill-rule="evenodd" clip-rule="evenodd" d="M101.697 75.4895C99.7526 75.4895 98.3198 74.0817 98.3198 71.8049C98.3198 69.5533 99.8038 68.1203 101.697 68.1203C102.849 68.1203 103.847 68.658 104.64 69.8606L107.403 68.2739C106.482 66.3032 104.486 65.1006 101.723 65.1006C98.115 65.1006 95.0444 67.7614 95.0444 71.8049C95.0444 75.8471 97.9616 78.5092 101.723 78.5092C104.435 78.5092 106.252 77.2802 107.531 75.1054L104.87 73.6472C104.103 74.7213 103.284 75.4895 101.697 75.4895Z" fill="#111111"/>
<path fill-rule="evenodd" clip-rule="evenodd" d="M136.025 72.6493C135.871 74.5936 135.488 75.028 134.822 75.028C134.368 75.028 134.154 74.9777 133.843 74.8971L133.86 78.1812C133.86 78.1812 134.26 78.3034 135.002 78.3034C137.739 78.3034 138.763 76.5379 139.018 72.7764L139.326 68.3502H142.959V78.1245H146.183V65.459H136.563L136.025 72.6493Z" fill="#111111"/>
<path fill-rule="evenodd" clip-rule="evenodd" d="M123.35 70.1163C123.81 68.6832 125.09 67.5574 126.779 67.5574C128.569 67.5574 129.772 68.5296 130.079 70.1163H123.35ZM126.881 65.1006C123.196 65.1006 120.203 67.7878 120.203 71.8049C120.203 75.8219 123.196 78.5092 126.727 78.5092C129.516 78.5092 131.282 77.4603 132.561 75.2843L130.002 74.0061C129.209 75.0034 128.492 75.7451 126.779 75.7451C124.885 75.7451 123.503 74.5173 123.298 72.573H133.072V71.446C133.072 67.7363 130.514 65.1006 126.881 65.1006Z" fill="#111111"/>
<path fill-rule="evenodd" clip-rule="evenodd" d="M151.135 70.1163C151.596 68.6832 152.876 67.5574 154.564 67.5574C156.355 67.5574 157.559 68.5296 157.865 70.1163H151.135ZM154.667 65.1006C150.982 65.1006 147.988 67.7878 147.988 71.8049C147.988 75.8219 150.982 78.5092 154.513 78.5092C157.301 78.5092 159.067 77.4603 160.347 75.2843L157.789 74.0061C156.995 75.0034 156.279 75.7451 154.564 75.7451C152.67 75.7451 151.289 74.5173 151.085 72.573H160.859V71.446C160.859 67.7363 158.3 65.1006 154.667 65.1006Z" fill="#111111"/>
<path fill-rule="evenodd" clip-rule="evenodd" d="M108.534 68.2734H112.321V78.1498H115.545V68.2734H119.333V65.459H108.534V68.2734Z" fill="#111111"/>
<path fill-rule="evenodd" clip-rule="evenodd" d="M180.965 75.4895C179.072 75.4895 177.306 74.1333 177.306 71.8049C177.306 69.4765 179.072 68.1203 180.965 68.1203C182.858 68.1203 184.624 69.4765 184.624 71.8049C184.624 74.1333 182.858 75.4895 180.965 75.4895ZM180.965 65.1006C177.485 65.1006 174.031 67.3522 174.031 71.8049C174.031 76.2577 177.485 78.5092 180.965 78.5092C184.445 78.5092 187.899 76.2577 187.899 71.8049C187.899 67.3522 184.445 65.1006 180.965 65.1006Z" fill="#111111"/>
<path fill-rule="evenodd" clip-rule="evenodd" d="M200.728 65.4569L197.229 74.3447L193.73 65.4569H189.516V78.1251H192.581V70.1048L195.977 78.1251H198.481L201.876 70.1048V78.1251H204.942V65.4569H200.728Z" fill="#111111"/>
</g>
</svg>
