<svg width="240" height="120" viewBox="0 0 240 120" fill="none" xmlns="http://www.w3.org/2000/svg">
<rect width="240" height="120" fill="white"/>
<mask id="mask0_2897_44" style="mask-type:luminance" maskUnits="userSpaceOnUse" x="30" y="48" width="180" height="40">
<path d="M210 48H30V87.0363H210V48Z" fill="white"/>
</mask>
<g mask="url(#mask0_2897_44)">
<path d="M55.9985 57.3182C56.7992 58.1154 56.7992 59.4147 55.9985 60.2132L49.5432 66.6699V75.7862C49.5432 76.9183 48.6193 77.8323 47.4859 77.8323C46.3401 77.8323 45.4161 76.9183 45.4161 75.7862V66.6192L39.0102 60.2132C38.197 59.4147 38.197 58.1154 39.0102 57.3182C39.7987 56.5185 41.1043 56.5185 41.9052 57.3182L47.3013 62.7129H47.7199L53.1035 57.3182C53.9043 56.5185 55.2099 56.5185 55.9985 57.3182Z" fill="white"/>
<path d="M55.9985 60.2145C56.7992 59.4138 56.7992 58.1154 55.9985 57.3184C55.21 56.52 53.9042 56.52 53.1035 57.3184L47.72 62.713H47.3012L41.9052 57.3184C41.1044 56.52 39.7985 56.52 39.01 57.3184C38.197 58.1154 38.197 59.4138 39.01 60.2145L45.4162 66.6194V75.7864C45.4162 76.9171 46.3401 77.8324 47.486 77.8324C48.6194 77.8324 49.5433 76.9171 49.5433 75.7864V66.6699L55.9985 60.2145ZM47.4242 48.0183C57.0211 48.0183 64.7945 55.7956 64.7945 65.3899C64.7945 74.983 57.0211 82.7552 47.4242 82.7552C37.8399 82.7552 30.0541 74.983 30.0541 65.3899C30.0541 55.7956 37.8399 48.0183 47.4242 48.0183Z" fill="#E42D24"/>
<path d="M93.6836 67.7538H91.8355L92.6364 59.3249C92.6364 59.3249 93.7574 67.7069 93.6836 67.7538ZM96.517 54.7875H88.7434L85.9963 75.1761H91.5523L91.8355 71.4656L93.7081 71.4644L93.9792 75.1613L99.5967 75.1663L96.517 54.7875Z" fill="#111111"/>
<path d="M154.417 71.4473C154.504 72.1324 154.787 72.7925 155.256 73.4196C155.724 74.0467 156.426 74.5555 157.374 74.9484C158.311 75.3416 159.419 75.5374 160.651 75.5374C161.76 75.5374 162.733 75.3587 163.559 75.0334C164.385 74.7057 165.037 74.2289 165.529 73.5871C166.048 72.9479 166.343 71.7344 166.441 71.1307C166.553 70.5345 166.602 69.7276 166.602 68.2343V54.7718H161.218V69.9284C161.218 70.9065 161.181 71.541 161.07 71.7911C160.972 72.0571 160.75 72.1889 160.417 72.1889C160.121 72.1889 159.924 72.0706 159.826 71.8329C159.727 71.5927 159.678 71.0507 159.678 70.1834V54.7718H154.295V66.7192C154.295 68.9539 154.344 70.7598 154.417 71.4473Z" fill="#111111"/>
<path d="M202.893 75.1664H208.277V54.7653H202.893V75.1664Z" fill="#111111"/>
<path d="M192.139 66.4704H193.753V75.1665H199.136V54.7718H193.753V62.0329H192.139V54.7718H186.756V75.1665H192.139V66.4704Z" fill="#111111"/>
<path d="M172.884 74.729C173.907 75.2698 175.213 75.5373 176.79 75.5373C178.305 75.5373 179.574 75.2169 180.621 74.5886C181.655 73.9529 182.309 73.2211 182.618 72.3811C182.925 71.5458 183.086 69.5278 183.086 67.5234V66.7387H177.701V69.7988C177.701 70.8645 177.628 71.542 177.516 71.8254C177.381 72.11 177.122 72.2528 176.728 72.2528C176.297 72.2528 176.037 72.11 175.915 71.8254C175.792 71.542 175.754 70.9299 175.754 69.9886V60.4103C175.754 59.4308 175.792 58.4516 175.915 58.1509C176.037 57.8563 176.297 57.7197 176.728 57.7197C177.134 57.7197 177.405 57.8381 177.516 58.0744C177.639 58.3198 177.701 59.2732 177.701 60.2454V63.6158H183.086V61.7715C183.086 59.9606 182.912 58.2963 182.58 57.4439C182.272 56.5864 181.581 55.8657 180.559 55.2988C179.525 54.7311 178.318 54.4402 176.728 54.4402C175.558 54.4402 174.424 54.6215 173.537 54.9909C172.626 55.3618 171.924 55.8657 171.419 56.5199C170.925 57.1653 170.605 57.8381 170.507 58.5352C170.408 59.2325 170.36 60.6112 170.36 62.0069V67.654C170.36 69.5512 170.519 71.5592 170.865 72.5079C171.197 73.4527 171.874 74.1955 172.884 74.729Z" fill="#111111"/>
<path d="M107.05 75.1578V61.7324L108.947 75.1518H112.199L114.232 61.7853V75.1518H118.963L118.938 54.7718H111.965L110.635 64.2723L109.304 54.7718H102.344V75.1518L107.05 75.1578Z" fill="#111111"/>
<path d="M76.3009 75.1728H81.2655V67.754L85.2078 54.7864H80.2553L78.8757 62.799L77.4467 54.7864H72.5189L76.3009 67.754V75.1728Z" fill="#111111"/>
<path d="M128.461 59.325C128.461 59.325 129.595 67.7069 129.521 67.754H127.673L128.461 59.325ZM127.673 71.4646L129.545 71.4632L129.816 75.1614L135.434 75.1664L132.354 54.7864H124.581L121.833 75.1762H127.389L127.673 71.4646Z" fill="#111111"/>
<path d="M138.883 73.3147C139.302 73.9209 139.819 74.4802 140.608 74.8978C141.408 75.3093 142.222 75.5079 143.146 75.5079C143.909 75.5079 144.711 75.3955 145.228 75.0222C145.781 74.6232 146.225 74.2697 146.632 73.4491L147.125 75.1641H150.549V64.3562H144.316V67.0652H145.289V69.8568C145.289 70.7671 145.216 71.3807 145.079 71.6924C144.931 72.0114 144.661 72.1607 144.266 72.1607C143.909 72.1607 143.675 72.0226 143.54 71.7465C143.429 71.4657 143.366 70.8867 143.366 70.0182L143.38 60.0568C143.38 59.0625 143.441 58.4331 143.551 58.1965C143.675 57.9574 143.983 57.8368 144.316 57.8368C144.711 57.8368 145.018 57.9157 145.128 58.1965C145.202 58.4058 145.252 58.8187 145.277 59.4975C145.277 59.7241 145.277 60.0727 145.277 60.3501V61.9909H150.549V61.5473C150.549 59.9495 150.377 58.4625 150.057 57.6237C149.736 56.7811 149.058 56.0555 148.011 55.4345C146.964 54.8296 145.659 54.4402 144.069 54.4402C142.456 54.4402 141.137 54.8789 140.14 55.5823C139.117 56.2833 138.502 57.0643 138.291 57.9058C138.082 58.7535 137.96 60.3624 137.96 62.2335V68.1469C137.96 69.4933 138.009 70.7181 138.119 71.3904C138.205 72.0583 138.477 72.7001 138.883 73.3147Z" fill="#111111"/>
<path d="M209.953 79.9783L208.585 86.9708H158.249L159.617 79.9783H209.953Z" fill="#E42D24"/>
<path d="M167.587 82.2364L167.501 82.2808L167.451 82.3682V83.2528L167.501 83.3501L167.587 83.3859H170.371V82.2364H167.587ZM167.587 81.6182H170.999V85.3311H170.371V84.0043H169.337L167.685 85.3311H166.836V85.208L168.351 84.0043H167.587C167.391 84.0043 167.206 83.934 167.058 83.7926C166.923 83.6459 166.848 83.4721 166.836 83.2714V82.3682C166.836 82.1638 166.909 81.9864 167.058 81.8386C167.206 81.6908 167.391 81.6182 167.587 81.6182Z" fill="white"/>
<path d="M193.47 84.0043H192.718C192.521 84.0043 192.348 83.934 192.189 83.7924C192.053 83.6458 191.966 83.4721 191.966 83.2714V81.618H192.583V83.2528L192.632 83.3501L192.718 83.3859H195.503V81.618H196.119V85.3311H195.503V84.0043H193.47Z" fill="white"/>
<path d="M177.023 82.0346C177.036 82.0935 177.036 82.1552 177.036 82.2205V85.3151H176.421V82.3177L175.015 84.9788C174.881 85.2203 174.72 85.3324 174.523 85.3151C174.326 85.3448 174.154 85.2352 174.03 84.9886V84.9788L172.614 82.3177V85.3151H171.998V82.2205C171.998 82.1441 172.009 82.0789 172.021 82.026V82.0159C172.047 81.9285 172.097 81.8484 172.157 81.7782C172.282 81.6601 172.43 81.601 172.601 81.601C172.687 81.5959 172.786 81.6243 172.896 81.6895L172.909 81.6982C172.984 81.7511 173.057 81.8276 173.106 81.9285L174.523 84.5808L175.927 81.9285C175.964 81.8335 176.037 81.7549 176.136 81.6895C176.248 81.6243 176.346 81.5959 176.432 81.601C176.606 81.601 176.753 81.6601 176.876 81.7782C176.937 81.8424 176.987 81.9223 177.011 82.0159L177.023 82.0346Z" fill="white"/>
<path d="M181.347 82.3425C181.287 82.2709 181.2 82.2364 181.101 82.2364H178.896C178.797 82.2364 178.712 82.2697 178.65 82.3338C178.575 82.404 178.538 82.4903 178.538 82.5901V84.359C178.538 84.459 178.575 84.5415 178.638 84.6055C178.712 84.6771 178.797 84.7126 178.896 84.7126H181.101C181.188 84.7126 181.274 84.6807 181.347 84.6153C181.422 84.5453 181.458 84.459 181.458 84.359V82.5901C181.458 82.4952 181.422 82.4139 181.347 82.3425ZM181.792 81.9101C181.976 82.0986 182.075 82.325 182.075 82.5901V84.359C182.075 84.6362 181.976 84.8653 181.779 85.0489C181.595 85.2373 181.372 85.3311 181.101 85.3311H178.896C178.638 85.3311 178.402 85.2373 178.206 85.0489C178.01 84.8653 177.923 84.6362 177.923 84.359V82.5901C177.923 82.3191 178.01 82.0887 178.206 81.9001C178.402 81.7129 178.638 81.618 178.896 81.618H181.101C181.372 81.618 181.595 81.7153 181.792 81.9101Z" fill="white"/>
<path d="M191.056 81.618H190.439V83.3859H187.655L187.569 83.3501L187.519 83.2528V81.618H186.891V83.2714C186.904 83.4721 186.977 83.6458 187.125 83.7924C187.273 83.934 187.458 84.0043 187.655 84.0043H190.439V84.359C190.439 84.4601 190.401 84.5452 190.328 84.6153C190.254 84.6807 190.169 84.7126 190.081 84.7126H186.891V85.3311H190.081C190.354 85.3311 190.575 85.2373 190.759 85.0489C190.956 84.8716 191.044 84.651 191.056 84.3861V81.618Z" fill="white"/>
<path d="M183.528 83.5633V85.3311H182.912V82.5629C182.912 82.298 183.011 82.0776 183.196 81.9001C183.393 81.7117 183.614 81.618 183.885 81.618H186.251V82.2364H183.885C183.787 82.2364 183.701 82.2697 183.64 82.3338C183.565 82.404 183.528 82.4891 183.528 82.5901V83.5633Z" fill="white"/>
<path d="M202.82 81.618V84.7126H202.834L205.74 81.7943C205.876 81.676 206.023 81.618 206.171 81.618C206.355 81.618 206.504 81.6796 206.615 81.8028C206.739 81.9271 206.799 82.0715 206.799 82.2364V85.3311H206.184V82.2364H206.171L203.264 85.1538C203.141 85.272 202.994 85.3311 202.834 85.3311C202.661 85.3311 202.512 85.272 202.389 85.1538C202.266 85.0304 202.205 84.8839 202.205 84.7126V81.618H202.82Z" fill="white"/>
<path d="M197.437 81.618V84.7126L200.345 81.7943C200.479 81.676 200.627 81.618 200.774 81.618C200.96 81.618 201.108 81.6796 201.218 81.8028C201.354 81.9271 201.416 82.0715 201.416 82.2364V85.3311H200.788V82.2364H200.774L197.868 85.1538C197.757 85.272 197.609 85.3311 197.437 85.3311C197.276 85.3311 197.129 85.272 196.993 85.1538C196.87 85.0304 196.808 84.8839 196.808 84.7126V81.618H197.437Z" fill="white"/>
<path d="M205.148 81.2572L205.518 80.8776L205.123 80.4846L204.729 80.8481L204.632 80.917L204.558 80.9368L204.495 80.9466L204.446 80.9368L204.373 80.917L204.261 80.8481L203.93 80.4846L203.522 80.9181L203.856 81.2571L203.868 81.2619L203.88 81.2767V81.2743L203.904 81.2964L204.004 81.3801L204.114 81.4345L204.151 81.4566C204.25 81.4971 204.362 81.5169 204.458 81.5182H204.546C204.656 81.5169 204.755 81.4973 204.853 81.4566L204.89 81.4345L204.989 81.3801L205.1 81.2964L205.123 81.2743V81.2767L205.137 81.2619L205.148 81.2572Z" fill="white"/>
<path d="M164.162 82.9881H163.077L162.869 83.9614H163.94L164.162 82.9881ZM161.119 83.9614H162.118L162.339 82.9881H161.353L161.489 82.3684H162.487L162.66 81.6158H163.398L163.226 82.3684H164.298L164.483 81.6158H165.222L165.05 82.3684H166.047L165.9 82.9881H164.902L164.679 83.9614H165.678L165.529 84.5809H164.544L164.359 85.3337H163.62L163.793 84.5809H162.721L162.549 85.3337H161.797L161.982 84.5809H160.984L161.119 83.9614Z" fill="white"/>
</g>
</svg>
